PathFileType	4	(X/Y/Z)	..\data\2014050\dynamic\2014050_C5_05.trc
DataRate	CameraRate	NumFrames	NumMarkers	Units	OrigDataRate	OrigDataStartFrame	OrigNumFrames
100.000000	100.000000	4	52	mm	100.000000	106	142
Frame#	Time	L_IAS			L_IPS			R_IPS			R_IAS			L_FTC			L_FLE			L_FME			L_FAX			L_TTC			L_FAL			L_TAM			L_FCC			L_FM1			L_FM2			L_FM5			R_FTC			R_FLE			R_FME			R_FAX			R_TTC			R_FAL			R_TAM			R_FCC			R_FM1			R_FM2			R_FM5			CV7			TV10			SXS			SJN			L_SIA			L_SRS			L_SAA			L_SAE			L_HLE			L_HME			L_UOA			L_RSP			L_UHE			L_HM2			L_HM5			R_SIA			R_SRS			R_SAA			R_SAE			R_HLE			R_HME			R_UOA			R_RSP			R_UHE			R_HM2			R_HM5			
		X1	Y1	Z1	X2	Y2	Z2	X3	Y3	Z3	X4	Y4	Z4	X5	Y5	Z5	X6	Y6	Z6	X7	Y7	Z7	X8	Y8	Z8	X9	Y9	Z9	X10	Y10	Z10	X11	Y11	Z11	X12	Y12	Z12	X13	Y13	Z13	X14	Y14	Z14	X15	Y15	Z15	X16	Y16	Z16	X17	Y17	Z17	X18	Y18	Z18	X19	Y19	Z19	X20	Y20	Z20	X21	Y21	Z21	X22	Y22	Z22	X23	Y23	Z23	X24	Y24	Z24	X25	Y25	Z25	X26	Y26	Z26	X27	Y27	Z27	X28	Y28	Z28	X29	Y29	Z29	X30	Y30	Z30	X31	Y31	Z31	X32	Y32	Z32	X33	Y33	Z33	X34	Y34	Z34	X35	Y35	Z35	X36	Y36	Z36	X37	Y37	Z37	X38	Y38	Z38	X39	Y39	Z39	X40	Y40	Z40	X41	Y41	Z41	X42	Y42	Z42	X43	Y43	Z43	X44	Y44	Z44	X45	Y45	Z45	X46	Y46	Z46	X47	Y47	Z47	X48	Y48	Z48	X49	Y49	Z49	X50	Y50	Z50	X51	Y51	Z51	X52	Y52	Z52	

107	1.06	1560.660766601563	871.7971191406252	-325.8188476562501	1354.89794921875	882.4533691406252	-288.9554748535157	1351.20361328125	868.4541015625002	-179.7633056640625	1544.28857421875	855.0800781250002	-116.0433120727539	1514.744995117188	799.2061767578127	-425.8244628906251	1619.863525390625	424.593719482422	-378.8505859375001	1638.360107421875	427.9567260742189	-245.8825073242188	1601.278442382813	363.6159057617188	-377.4555969238282	1660.035888671875	359.5943298339844	-325.8673706054688	1568.365356445313	59.25829696655275	-323.1876831054688	1585.934448242188	67.02660369873048	-236.5487060546876	1518.463256835938	14.4544906616211	-269.8750915527344	1693.459594726563	14.12760257720948	-250.1708526611329	1702.321899414063	29.36717796325684	-304.9323425292969	1656.0068359375	8.148512840270998	-355.5141906738282	1459.604614257813	750.4650268554689	-35.03871536254884	1446.05029296875	398.6894531250001	-52.18391418457033	1484.012084960938	372.6875305175782	-185.0097961425782	1396.257446289063	378.3161315917969	-47.31011581420899	1448.500610351563	320.3564758300782	-93.74241638183595	1127.499877929688	208.8752593994141	-93.50477600097658	1160.410400390625	182.7361602783203	-174.4919128417969	1082.991821289063	222.2902832031251	-149.9520568847657	1131.764892578125	53.1488609313965	-156.4571380615235	1150.500122070313	64.61903381347658	-102.8682937622071	1118.580200195313	96.00531005859378	-61.42019271850587	1434.995361328125	1353.446533203125	-253.1257934570313	1346.419799804688	1136.176025390625	-230.8636016845704	1569.138549804688	1028.746215820313	-234.0426177978516	1544.7451171875	1258.773315429688	-246.6000366210938	1346.33642578125	1167.160766601563	-318.1665954589844	1391.261596679688	1278.432495117188	-339.2808837890626	1442.01611328125	1281.744018554688	-405.8099975585939	1488.576782226563	1276.657470703125	-419.7055664062501	1366.452392578125	1006.489501953125	-490.1421813964845	1314.716186523438	1011.07666015625	-423.0386962890626	1321.578857421875	993.3652954101565	-475.5067138671876	1322.427978515625	772.1956176757815	-449.8326416015626	1307.552734375	792.359313964844	-517.2194213867189	1281.782470703125	701.9039306640626	-441.8250427246095	1256.30908203125	747.6748657226564	-523.5520019531251	1348.490112304688	1196.181274414063	-149.1115112304688	1393.867919921875	1301.285034179688	-154.9195556640625	1446.81396484375	1308.947875976563	-87.77923583984376	1504.609985351563	1311.0830078125	-89.85096740722658	1531.991821289063	1031.121826171875	42.58787536621094	1482.83447265625	992.1805419921877	-15.42041873931885	1509.891357421875	979.4130859375002	31.1394386291504	1719.901245117188	903.409606933594	-11.40180969238281	1675.611083984375	856.416687011719	21.20451545715332	1789.687255859375	866.3217773437502	-11.16049003601074	1725.602172851563	796.3380126953127	4.780198097229005	
108	1.07	1576.11962890625	874.3472290039065	-327.9697570800782	1370.37109375	884.9127197265627	-289.0462341308594	1367.212768554688	870.0892333984377	-180.1915893554688	1560.56005859375	856.7574462890627	-117.212646484375	1527.459228515625	800.8433227539065	-427.3760070800782	1625.516723632813	423.5432128906251	-379.2766418457032	1643.853271484375	426.7283630371095	-246.3754272460938	1605.439819335938	362.8230285644532	-377.8499755859376	1664.722045898438	358.0108032226563	-326.4443969726563	1568.86181640625	59.32031631469728	-323.0221862792969	1586.577880859375	67.22267150878908	-236.398422241211	1518.730590820313	14.78344154357911	-269.9164123535157	1693.57861328125	14.58789443969727	-249.9979553222657	1702.49755859375	29.86758995056153	-304.9183349609376	1656.136962890625	8.796150207519533	-355.6554260253907	1477.702270507813	750.7132568359376	-36.83567428588868	1477.113525390625	399.6015014648439	-53.95666503906251	1515.027587890625	374.2174377441407	-187.1271514892578	1427.775512695313	379.2862243652344	-49.42387008666994	1480.593994140625	321.6928405761719	-95.75842285156251	1160.08203125	209.4564666748047	-94.8201141357422	1193.054565429688	182.8785400390625	-175.6761779785157	1114.125	220.0937652587891	-151.4290008544922	1169.989379882813	53.45175933837892	-153.2042083740235	1188.378173828125	67.30079650878908	-100.2910537719727	1155.868408203125	98.99292755126956	-59.76277923583986	1451.843139648438	1355.7802734375	-253.8406219482422	1362.911254882813	1138.622680664063	-232.1784973144532	1585.614379882813	1030.534301757813	-233.3409576416016	1561.530883789063	1260.59033203125	-246.6747589111329	1363.540649414063	1169.585693359375	-319.9996337890626	1408.501831054688	1280.836059570313	-340.3754272460938	1459.60791015625	1283.288696289063	-406.682830810547	1506.4150390625	1278.26220703125	-420.0282592773439	1393.0078125	1004.679870605469	-491.8948059082032	1340.996948242188	1006.065734863281	-424.8477783203126	1348.513793945313	989.3201293945315	-477.100311279297	1360.466674804688	767.9522094726564	-453.066131591797	1343.460815429688	788.1528930664065	-519.8267822265626	1326.976684570313	694.3875732421876	-447.6460571289064	1296.464233398438	739.5301513671876	-527.2384643554689	1364.707275390625	1198.416015625	-150.5103607177735	1410.549560546875	1303.47998046875	-155.7903442382813	1463.093505859375	1310.858032226563	-88.07187652587892	1520.978271484375	1312.626342773438	-89.4192581176758	1539.18408203125	1029.64111328125	40.5326156616211	1490.249755859375	993.4196777343752	-18.79879760742188	1515.603393554688	979.632263183594	28.43657112121583	1721.753173828125	892.145690917969	-10.50725269317627	1674.411865234375	847.8673095703127	21.78405570983887	1789.41064453125	850.399108886719	-9.063292503356935	1720.883911132813	784.7920532226565	6.397093296051027	
109	1.08	1591.418823242188	877.1138305664065	-330.0788269042969	1385.866577148438	887.6154785156252	-289.2244567871094	1383.184326171875	872.3455810546877	-180.802230834961	1576.806518554688	859.0703125000002	-118.3436279296875	1539.884521484375	802.4227294921877	-428.7604980468751	1630.468872070313	422.6317749023439	-379.4193115234376	1648.472778320313	425.6090393066407	-246.5383758544922	1608.846435546875	362.1010131835938	-377.9919128417969	1668.6220703125	356.5301818847657	-326.7616577148438	1569.271240234375	59.34820556640626	-322.9024047851563	1587.219604492188	67.4322967529297	-236.3438262939454	1518.982666015625	15.08427429199219	-269.9603881835938	1693.719116210938	15.18589782714844	-249.9401550292969	1702.604736328125	30.42543983459473	-304.9592895507813	1656.290893554688	9.36431407928467	-355.7248229980469	1495.583740234375	751.7026977539064	-38.63562774658204	1507.911376953125	401.5382690429689	-56.15373611450197	1545.702514648438	376.8591308593751	-189.6207885742188	1458.965698242188	380.9480895996094	-52.10888671875001	1512.826904296875	323.9300842285157	-98.08180999755862	1193.9970703125	208.0390625000001	-96.30628967285159	1227.145874023438	181.6358337402344	-177.0727691650391	1146.394775390625	215.4268798828126	-152.8626098632813	1211.526611328125	52.7061004638672	-150.9255065917969	1229.369873046875	69.19327545166017	-98.64154052734378	1195.970947265625	100.0979309082032	-58.80062866210939	1468.510375976563	1358.295654296875	-254.3532257080079	1379.2529296875	1141.223999023438	-233.4249572753907	1601.877319335938	1032.601928710938	-232.5829162597657	1578.106689453125	1262.684326171875	-246.6519775390626	1380.5185546875	1172.331665039063	-321.6564941406251	1425.47412109375	1283.568237304688	-341.2872009277344	1476.880493164063	1285.266845703125	-407.3760681152345	1523.898071289063	1280.327514648438	-420.2105407714845	1419.741333007813	1003.447937011719	-493.3464965820314	1367.7412109375	1001.504760742188	-426.2155151367189	1375.794311523438	985.7491455078127	-478.289031982422	1399.7294921875	764.8237304687501	-456.2234802246095	1380.117553710938	784.8350830078127	-522.1742553710939	1373.911010742188	688.5538330078126	-453.4726562500001	1337.6435546875	732.4943237304689	-530.4451904296876	1380.750366210938	1200.73291015625	-151.8900604248047	1426.986450195313	1305.77490234375	-156.5588531494141	1479.04150390625	1312.909423828125	-88.32192993164064	1536.945678710938	1314.347900390625	-88.85970306396486	1545.83447265625	1028.486694335938	38.13748931884766	1497.330810546875	995.0872802734377	-22.53128814697266	1520.882202148438	980.3157348632815	25.35654640197755	1722.064575195313	880.944274902344	-9.615581512451174	1671.662963867188	839.7779541015627	22.27299690246582	1787.155151367188	834.588562011719	-6.96763324737549	1714.263305664063	773.7877197265627	8.029144287109377	
110	1.09	1606.613159179688	880.0135498046877	-332.0940246582032	1401.43115234375	890.531433105469	-289.4768981933594	1399.171752929688	875.145690917969	-181.5333557128907	1593.0673828125	861.965270996094	-119.4864654541016	1552.19775390625	803.9561157226565	-429.9405517578126	1634.894287109375	421.9021606445314	-379.2945251464844	1652.446533203125	424.6595153808595	-246.3963623046876	1611.722534179688	361.5016174316407	-377.8925170898438	1671.870483398438	355.1962280273438	-326.8046875000001	1569.60302734375	59.3507652282715	-322.8033752441407	1587.854736328125	67.64878845214845	-236.3572998046876	1519.207153320313	15.37099170684815	-269.9837951660157	1693.883544921875	15.79948425292969	-249.9800720214844	1702.667236328125	30.9336051940918	-305.0431823730469	1656.44775390625	9.793987274169924	-355.7429199218751	1513.304809570313	753.3499145507814	-40.38886260986329	1538.36376953125	404.4056396484376	-58.71921157836915	1575.994995117188	380.5087585449219	-192.4184265136719	1489.775390625	383.2037963867188	-55.26531982421876	1545.098388671875	326.9917907714844	-100.6595993041992	1229.144775390625	204.616195678711	-97.94346618652347	1262.5771484375	179.0025024414063	-178.6590423583985	1179.832763671875	208.4311523437501	-154.2371215820313	1255.899658203125	50.98972320556642	-149.7307586669922	1272.968139648438	70.19962310791017	-98.01463317871097	1238.441528320313	99.31474304199222	-58.61109924316408	1485.0185546875	1360.941772460938	-254.6950225830079	1395.483642578125	1143.927734375	-234.6140289306641	1617.962646484375	1034.934204101563	-231.8240814208985	1594.495849609375	1265.029663085938	-246.5621185302735	1397.299072265625	1175.338745117188	-323.1518249511719	1442.19921875	1286.569946289063	-342.0385437011719	1493.852905273438	1287.645874023438	-407.9115295410157	1541.04150390625	1282.83349609375	-420.2768859863282	1446.596557617188	1002.807250976563	-494.5022583007814	1394.94140625	997.5057373046877	-427.1319580078126	1403.39892578125	982.6981201171877	-479.077606201172	1440.092529296875	762.9828491210939	-459.2745361328126	1417.44384765625	782.4959716796877	-524.2143554687501	1422.2783203125	684.6945800781251	-459.2234191894532	1379.702270507813	726.7652587890626	-533.1027221679689	1396.646850585938	1203.093017578125	-153.2693023681641	1443.190185546875	1308.126098632813	-157.2605895996094	1494.677490234375	1315.076416015625	-88.5784378051758	1552.540405273438	1316.234741210938	-88.22250366210939	1552.079711914063	1027.722534179688	35.39184951782227	1504.165283203125	997.201843261719	-26.57262992858887	1525.838012695313	981.5049438476565	21.93289756774903	1720.85400390625	870.0117797851565	-8.768042564392092	1667.44580078125	832.3535156250002	22.6516170501709	1782.913940429688	819.1611938476565	-4.944168567657472	1705.8134765625	763.6174926757814	9.65748977661133	
